<svg width="30" height="30" viewBox="0 0 30 30" xmlns="http://www.w3.org/2000/svg"><path d="M8.35355 7.64645C8.15829 7.45118 7.84171 7.45118 7.64645 7.64645C7.45118 7.84171 7.45118 8.15829 7.64645 8.35355L8.35355 7.64645ZM21.6464 22.3536C21.8417 22.5488 22.1583 22.5488 22.3536 22.3536C22.5488 22.1583 22.5488 21.8417 22.3536 21.6464L21.6464 22.3536ZM7.64645 21.6464C7.45118 21.8417 7.45118 22.1583 7.64645 22.3536C7.84171 22.5488 8.15829 22.5488 8.35355 22.3536L7.64645 21.6464ZM22.3536 8.35355C22.5488 8.15829 22.5488 7.84171 22.3536 7.64645C22.1583 7.45118 21.8417 7.45118 21.6464 7.64645L22.3536 8.35355ZM7.64645 8.35355L21.6464 22.3536L22.3536 21.6464L8.35355 7.64645L7.64645 8.35355ZM8.35355 22.3536L22.3536 8.35355L21.6464 7.64645L7.64645 21.6464L8.35355 22.3536Z"></path></svg>