<?xml version="1.0" encoding="UTF-8"?>
<svg id="Capa_1" data-name="Capa 1" xmlns="http://www.w3.org/2000/svg" viewBox="0 0 1920 262.38">
  <defs>
    <style>
      .cls-1 {
        fill: #76a2d7;
      }
    </style>
  </defs>
  <path class="cls-1" d="m1925,145.18c-51,26.3-107.1,46.4-165.6,59.6-146.4,39.6-296.7,39.4-397,39.2-176.1-.3-253.3-24-427.4-45-161.1-19.5-320.6-49.5-483.5-55.9-153.5-6.1-308.4,9.2-455.5,44.8v75.5h1928.8v-118.2h.2Z"/>
  <path class="cls-1" d="m1731.2,120.68c11.5-1-1.9-35.2,31.5-35.2,10.8,0,21.8,8.8,25.8,19,6.4,16.5-5.6,33.9-15.3,41.8-18.8,15.5-49,10.9-65.7-5.8-10.1-10.1-16.4-27.3-16-44.2.3-13.4,5.3-26.4,12-36.6,22.3-34.2,70-40.7,103.2-31.4,11.5,3.2,21.3,7,29.8,11.2,33.1,16.2,46.3,38.1,53.8,53.9,8.9,24.5,16.1,60,3,96-13.6,37.5-71,44.3-111.5,53.8-89.8,21.1-175,2.3-174.8-5.7.1-4.1,16-7.3,65.9-13.3,59.7-7.1,109.2-28.7,127.1-78,1.6-4.5,9.7-26.8-1-47.6-5-9.8-13.9-21.4-30.5-23.8-52-7.1-47.5,46.8-37.3,45.9Z"/>
</svg>