<svg xmlns="http://www.w3.org/2000/svg"  viewBox="0 0 48 48" width="240px" height="240px" baseProfile="basic"><path fill="#fff" d="M43.722,6.417c-2.388-1.191-5.92,0.392-8.426,2.274C30.983,11.93,26.389,18.071,24,22.247	c-2.389-4.175-6.982-10.316-11.295-13.556L12.104,9.49l0,0l0.6-0.799c-2.506-1.883-6.037-3.466-8.426-2.274	C3.458,6.827,2,8.962,2,8.962s0,1.193,0,2.325c0,1.228,0.718,10.853,1.204,12.591c1.067,3.817,3.865,5.755,6.998,6.49	c-1.725,0.978-3.611,3.361-3.611,3.361s-0.014,1.501,0,2.087c0.042,1.77,0.962,3.642,2.692,5.419C11.722,43.739,14.057,45,16.242,45	c0.416,0,0.826-0.045,1.23-0.137c3.433-0.775,5.468-4.688,6.527-7.342c1.06,2.654,3.095,6.567,6.528,7.342	c2.534,0.574,5.287-0.649,8.188-3.628c1.783-1.831,2.706-3.764,2.694-5.582c-0.004-0.53,0-2.006,0-2.006s-1.888-2.302-3.614-3.28	c3.133-0.734,5.932-2.672,6.999-6.49C45.282,22.141,46,12.516,46,11.287c0-0.982,0-2.549,0-2.549S44.634,6.873,43.722,6.417z"/><path fill="#fff" d="M12.104,7.491c4.815,3.617,9.994,10.95,11.896,14.886c1.902-3.935,7.081-11.269,11.896-14.886	C39.371,4.881,45,2.861,45,9.287c0,1.283-0.735,10.78-1.167,12.322c-1.499,5.36-6.962,6.727-11.821,5.9	c8.494,1.446,10.655,6.238,5.988,11.029c-8.863,9.099-12.738-2.283-13.732-5.2c-0.182-0.535-0.267-0.785-0.268-0.572	c-0.001-0.213-0.086,0.037-0.268,0.572c-0.993,2.917-4.869,14.299-13.732,5.2c-4.667-4.791-2.506-9.583,5.988-11.029	c-4.86,0.827-10.323-0.54-11.821-5.9C3.735,20.067,3,10.57,3,9.287C3,2.861,8.63,4.881,12.104,7.491L12.104,7.491z"/><path d="M16.242,43c-2.186,0-4.521-1.261-6.959-3.765c-2.304-2.365-3.171-4.9-2.442-7.138c0.485-1.49,1.637-2.752,3.361-3.729	c-3.133-0.734-5.931-2.672-6.998-6.49C2.718,20.14,2,10.515,2,9.287c0-2.476,0.767-4.115,2.278-4.87	c2.389-1.191,5.92,0.391,8.426,2.274h0.001c4.312,3.239,8.906,9.38,11.295,13.556c2.389-4.176,6.983-10.317,11.296-13.556	c2.506-1.882,6.038-3.465,8.426-2.274C45.233,5.172,46,6.811,46,9.287c0,1.229-0.718,10.854-1.204,12.591	c-1.067,3.817-3.866,5.756-6.999,6.49c1.726,0.978,2.877,2.24,3.362,3.729c0.729,2.237-0.139,4.772-2.442,7.138	c-2.901,2.979-5.654,4.202-8.188,3.628c-3.434-0.775-5.469-4.688-6.528-7.342c-1.06,2.655-3.095,6.567-6.527,7.342	C17.068,42.955,16.658,43,16.242,43z M24.06,31.686c0.704,0,0.934,0.675,1.156,1.33c0.602,1.768,2.434,7.147,5.753,7.896	c1.806,0.406,3.932-0.626,6.314-3.073c1.246-1.278,2.599-3.205,1.975-5.123c-0.649-1.992-3.352-3.531-7.414-4.223	c-0.544-0.093-0.91-0.609-0.817-1.154s0.61-0.911,1.153-0.818l0,0c0.001,0,0.002,0,0.004,0c4.266,0.725,9.308-0.256,10.687-5.184	C43.268,19.919,44,10.516,44,9.287c0-1.656-0.395-2.692-1.172-3.081c-1.261-0.629-3.862,0.229-6.331,2.083	c-4.69,3.523-9.749,10.697-11.597,14.521c-0.167,0.345-0.517,0.565-0.9,0.565l0,0c-0.384,0-0.733-0.22-0.9-0.565	c-1.848-3.823-6.905-10.997-11.596-14.521l0,0c-2.469-1.854-5.07-2.713-6.332-2.084C4.395,6.595,4,7.631,4,9.287	c0,1.229,0.732,10.632,1.13,12.052c1.379,4.927,6.421,5.911,10.687,5.184c0.002,0,0.003,0,0.004,0	c0.546-0.092,1.061,0.273,1.153,0.818s-0.273,1.061-0.817,1.154l0,0c-4.062,0.692-6.765,2.231-7.414,4.222	c-0.625,1.918,0.729,3.845,1.975,5.123c2.382,2.446,4.501,3.479,6.315,3.073c3.318-0.75,5.15-6.128,5.752-7.896	c0.229-0.673,0.473-1.365,1.216-1.329C24.021,31.687,24.04,31.686,24.06,31.686z"/></svg>