<?xml version="1.0" encoding="utf-8"?>
<!-- Generator: Adobe Illustrator 27.5.0, SVG Export Plug-In . SVG Version: 6.00 Build 0)  -->
<svg version="1.1" id="Capa_1" xmlns="http://www.w3.org/2000/svg" xmlns:xlink="http://www.w3.org/1999/xlink" x="0px" y="0px"
	 viewBox="0 0 150 179" style="enable-background:new 0 0 150 179;" xml:space="preserve">
<style type="text/css">
	.st0{fill:#FFFFFF;}
	.st1{fill:none;stroke:#FFFFFF;stroke-width:3;stroke-miterlimit:10;}
</style>
<g>
	<polygon class="st0" points="88.1,114.7 88.1,65.5 131,90.1 	"/>
	<polygon class="st0" points="43.6,89.9 86.2,65.3 86.3,114.8 	"/>
	<polygon class="st0" points="88.8,116.4 131.4,91.8 132.2,140.2 	"/>
	<polygon class="st0" points="18.1,136.2 60.7,111.6 60.8,161.1 	"/>
	<polygon class="st0" points="17.8,134.5 17.8,85.3 60.7,109.9 	"/>
	<polygon class="st0" points="43.2,88.3 43.2,39.1 86.2,63.7 	"/>
	<g>
		<path class="st0" d="M40.4,73.2v16.5v0.8l0.7,0.4l18.2,11.9v3.3L21,84L40.4,73.2 M41.8,70.8L18.1,83.9l42.6,24.6V102L41.8,89.7
			V70.8L41.8,70.8z"/>
	</g>
	<g>
		<path class="st0" d="M84.8,15.8c0.1,15.5,0.3,36.5,0.1,43.1L47.6,37.3L84.8,15.8 M86.2,13.3l-41.4,24l41.4,24
			C86.7,60.4,86.2,13.3,86.2,13.3L86.2,13.3z"/>
	</g>
	<g>
		<path class="st0" d="M130.8,93.5v45.8l-41.3,23.8V117L130.8,93.5 M132.2,91.1l-44.2,25.2v49.4l44.2-25.4V91.1L132.2,91.1z"/>
	</g>
	<polygon class="st0" points="62.6,160.5 62.6,111.3 105.5,135.9 	"/>
	<path class="st1" d="M131,140.2c-14.2-7.9-28.3-15.7-42.5-23.6"/>
	<path class="st1" d="M88.5,123.2c13.8,5.8,27.7,11.7,41.5,17.5"/>
	<path class="st1" d="M85.7,54.7c-13.2-5.8-26.4-11.7-39.6-17.5"/>
	<path class="st1" d="M20.6,84c5.5,0.3,11,0.6,16.5,0.9V74.1"/>
</g>
</svg>
